<svg version="1.1" id="Layer_1" xmlns="http://www.w3.org/2000/svg" xmlns:xlink="http://www.w3.org/1999/xlink" x="0px" y="0px"
	 width="100%" viewBox="0 0 512 512" enable-background="new 0 0 512 512" xml:space="preserve">
<path fill="#000000" opacity="1.000000" stroke="none" 
	d="
M103.000000,513.000000 
	C69.017365,513.000000 35.034721,513.000000 1.026042,513.000000 
	C1.026042,342.437836 1.026042,171.875687 1.026042,1.000000 
	C81.687294,1.000000 162.374985,1.000000 243.858765,1.309839 
	C243.765305,4.352533 243.039154,7.153220 241.940643,9.799312 
	C240.825699,12.484905 241.746552,15.616293 237.557114,17.564241 
	C232.761612,19.793989 229.996292,18.643753 226.405212,15.989559 
	C220.369720,11.528713 218.910141,11.787874 213.464569,17.040541 
	C211.188873,19.235590 208.982925,21.502945 206.746246,23.738413 
	C197.827271,32.652561 197.899445,32.607803 204.356369,42.963688 
	C205.181961,44.287792 205.111298,46.408279 204.908493,48.093967 
	C204.125839,54.598957 198.798203,55.479244 193.916245,55.841156 
	C189.229645,56.188587 188.194016,58.913773 188.040375,62.526924 
	C187.835526,67.344940 188.000885,72.178398 187.994370,77.005211 
	C187.981125,86.803955 187.977570,86.803947 197.547318,89.031120 
	C204.776703,90.713631 207.273544,96.291199 203.644119,102.747757 
	C202.609192,104.588844 201.160172,106.244659 200.411041,108.182579 
	C199.892181,109.524796 199.575455,111.809242 200.319962,112.637268 
	C205.650726,118.566048 211.242142,124.263313 216.825745,129.960617 
	C219.186478,132.369400 221.287720,131.612061 223.955383,129.794205 
	C226.879944,127.801277 230.499451,125.653709 233.807129,125.667915 
	C238.991135,125.690170 242.046432,129.184570 242.034866,134.865112 
	C242.024445,139.975922 244.683548,142.983490 249.927933,142.971329 
	C257.926147,142.952759 265.923767,142.692581 273.953796,142.534378 
	C274.445923,138.904648 274.774475,136.481400 275.431915,133.869034 
	C276.316620,130.685883 276.858459,128.465454 280.342468,126.535400 
	C286.165070,123.309799 289.303375,127.057808 292.901062,129.555161 
	C296.268372,131.892609 298.681976,132.047195 301.611145,128.997223 
	C304.798889,125.678062 308.549805,122.904739 311.798340,119.637993 
	C318.868286,112.528366 319.316498,110.947411 313.751404,102.825424 
	C311.503448,99.544617 312.222900,97.243866 312.912567,94.077850 
	C313.876556,89.652611 317.157227,89.591454 320.391083,88.989876 
	C321.819092,88.724236 323.211487,88.142403 324.643097,88.045715 
	C328.087219,87.813087 329.055511,85.826576 329.023254,82.722145 
	C328.948730,75.551727 328.816986,68.373299 329.080963,61.211842 
	C329.201904,57.931404 327.383148,56.790092 324.918640,56.089157 
	C322.904022,55.516193 320.644257,55.668884 318.735718,54.898815 
	C316.921722,54.166912 315.113281,52.919857 313.843903,51.436058 
	C310.417847,47.431213 311.750488,43.703423 314.608734,39.790833 
	C319.226044,33.470318 319.215179,33.174595 314.202606,27.784369 
	C309.004608,22.194786 303.447388,16.939270 298.014404,11.504787 
	C294.288116,13.986893 291.362305,16.038622 288.328583,17.915894 
	C286.658142,18.949551 285.124115,19.110023 282.807831,18.655451 
	C277.514282,17.616581 276.330963,13.957101 275.035400,9.506413 
	C274.342560,6.402331 273.671265,3.701167 273.000000,1.000001 
	C352.958832,1.000000 432.917633,1.000000 512.938232,1.000000 
	C512.938232,171.666672 512.938232,342.333344 512.938232,513.000000 
	C480.570648,513.000000 448.253998,513.000000 415.473511,512.531372 
	C415.009674,501.196198 415.009674,490.329712 415.009674,478.929169 
	C407.248779,478.929169 400.165680,478.929169 393.048035,478.466431 
	C392.831329,462.585236 394.044434,447.079987 390.007385,431.907806 
	C385.852509,416.292786 379.125946,402.131134 367.051086,390.477295 
	C367.025452,368.813049 367.025452,347.613159 367.025452,325.903442 
	C347.493896,325.903442 328.743011,325.903442 309.999481,325.547577 
	C323.349792,306.609680 329.192200,285.632751 329.920135,262.540070 
	C329.652740,254.299957 329.582703,246.502960 328.934357,238.754379 
	C328.235077,230.397568 327.662933,221.938126 325.858337,213.783936 
	C321.374664,193.524078 308.939026,180.772980 288.532135,175.668900 
	C273.573486,171.927505 258.433533,171.849152 243.223663,172.068527 
	C242.150787,172.083984 241.087997,172.801056 239.602448,173.115112 
	C235.640472,173.692596 232.038177,174.124634 228.562363,175.038025 
	C209.205215,180.124710 196.606110,191.890457 191.805222,211.754166 
	C187.952286,227.695618 187.662994,243.820740 188.076599,260.507812 
	C188.339859,266.386749 188.495239,271.820282 189.024719,277.217133 
	C190.788452,295.194092 197.481995,311.285309 207.524750,325.918457 
	C193.712860,326.031860 180.366928,326.098511 166.554840,326.105042 
	C160.853455,326.044983 155.618256,326.044983 149.878601,326.044983 
	C149.878601,348.169678 149.878601,369.537140 149.574890,391.050842 
	C147.956543,392.850922 146.664612,394.523407 145.323761,396.155701 
	C132.673828,411.555145 125.562500,429.110016 125.034904,449.114502 
	C124.772659,459.057831 124.916626,469.011902 124.416153,478.975159 
	C117.082603,478.989227 110.209747,478.989227 103.000000,478.989227 
	C103.000000,490.874268 103.000000,501.937134 103.000000,513.000000 
M98.907310,296.010223 
	C107.863800,296.616699 113.087807,292.813873 112.060776,282.848633 
	C111.726921,279.609222 112.105927,276.296387 112.814758,272.728516 
	C116.384407,271.504547 118.947433,269.710663 119.322876,265.340637 
	C119.900497,258.617096 122.373413,252.611450 126.889145,247.329712 
	C134.496109,238.432312 140.738708,229.132721 142.333023,216.703568 
	C144.658813,198.571884 140.613647,182.581100 129.140778,168.870773 
	C117.054688,154.427628 101.392960,146.387604 81.646065,146.185120 
	C76.670479,146.790100 71.612679,147.014862 66.734375,148.069733 
	C50.634197,151.551208 37.889893,160.455521 28.741520,173.937378 
	C21.150854,185.123672 18.247055,197.786362 18.875273,211.464325 
	C19.438805,223.733826 23.861864,234.053558 31.688639,243.255341 
	C36.304283,248.681900 41.583889,254.108032 41.822922,261.646271 
	C42.014271,267.680695 43.892616,271.542908 49.985020,273.961212 
	C49.989506,278.449432 50.101208,282.940887 49.965145,287.424835 
	C49.852737,291.129242 51.551712,293.730957 54.815186,294.869385 
	C57.642628,295.855774 60.752876,296.031464 64.000023,296.612305 
	C64.000023,297.371826 64.063362,298.184998 63.990070,298.985626 
	C63.362938,305.836365 65.694427,311.246185 71.961128,314.430725 
	C78.621933,317.815491 84.950653,317.655396 91.501305,313.281219 
	C98.071762,308.893829 98.300804,302.746399 98.907310,296.010223 
M389.090851,163.011078 
	C385.487122,163.011078 381.883362,163.011078 378.301025,163.011078 
	C378.301025,208.964661 378.301025,254.344269 378.301025,299.837372 
	C382.404480,299.837372 386.207581,299.837372 390.937042,299.979736 
	C425.504974,299.979736 460.072876,299.979736 494.999786,299.979736 
	C494.999786,297.689514 494.999817,295.889618 494.999817,294.089752 
	C494.999817,263.126038 495.005005,232.162338 494.995667,201.198639 
	C494.993622,194.374985 496.870148,186.718079 494.382568,180.955276 
	C491.743286,174.841080 484.938477,170.524689 479.950256,165.425674 
	C479.718323,165.188614 479.497955,164.891083 479.209656,164.766602 
	C477.784119,164.151047 476.338379,163.077667 474.898224,163.075226 
	C446.601685,163.027252 418.304993,163.105728 389.090851,163.011078 
z"/>
<path fill="#4D5080" opacity="1.000000" stroke="none" 
	d="
M103.468582,513.000000 
	C103.000000,501.937134 103.000000,490.874268 103.000000,478.989227 
	C110.209747,478.989227 117.082603,478.989227 124.721886,479.275238 
	C132.656570,479.584259 139.824814,479.607269 147.455444,479.712250 
	C177.239563,479.840179 206.561279,479.886139 236.356140,479.943970 
	C241.545563,479.961151 246.261856,479.966461 251.448135,479.978607 
	C261.683777,479.964355 271.449432,479.943268 281.669830,479.900055 
	C317.024597,479.873413 351.924622,479.884888 386.824554,479.824402 
	C388.911072,479.820801 390.996582,479.240906 393.082581,478.929199 
	C400.165680,478.929169 407.248779,478.929169 415.009674,478.929169 
	C415.009674,490.329712 415.009674,501.196198 415.004822,512.531372 
	C407.645752,513.000000 400.291504,513.000000 392.148254,512.735107 
	C389.882812,512.314514 388.406494,512.023193 386.930023,512.022644 
	C301.357117,511.988647 215.784210,511.972687 130.211319,512.009705 
	C128.474060,512.010437 126.737099,512.655518 125.000000,513.000000 
	C117.979050,513.000000 110.958107,513.000000 103.468582,513.000000 
z"/>
<path fill="#FC4755" opacity="1.000000" stroke="none" 
	d="
M275.103058,134.058167 
	C274.774475,136.481400 274.445923,138.904648 273.953796,142.534378 
	C265.923767,142.692581 257.926147,142.952759 249.927933,142.971329 
	C244.683548,142.983490 242.024445,139.975922 242.034866,134.865112 
	C242.046432,129.184570 238.991135,125.690170 233.807129,125.667915 
	C230.499451,125.653709 226.879944,127.801277 223.955383,129.794205 
	C221.287720,131.612061 219.186478,132.369400 216.825745,129.960617 
	C211.242142,124.263313 205.650726,118.566048 200.319962,112.637268 
	C199.575455,111.809242 199.892181,109.524796 200.411041,108.182579 
	C201.160172,106.244659 202.609192,104.588844 203.644119,102.747757 
	C207.273544,96.291199 204.776703,90.713631 197.547318,89.031120 
	C187.977570,86.803947 187.981125,86.803955 187.994370,77.005211 
	C188.000885,72.178398 187.835526,67.344940 188.040375,62.526924 
	C188.194016,58.913773 189.229645,56.188587 193.916245,55.841156 
	C198.798203,55.479244 204.125839,54.598957 204.908493,48.093967 
	C205.111298,46.408279 205.181961,44.287792 204.356369,42.963688 
	C197.899445,32.607803 197.827271,32.652561 206.746246,23.738413 
	C208.982925,21.502945 211.188873,19.235590 213.464569,17.040541 
	C218.910141,11.787874 220.369720,11.528713 226.405212,15.989559 
	C229.996292,18.643753 232.761612,19.793989 237.557114,17.564241 
	C241.746552,15.616293 240.825699,12.484905 241.940643,9.799312 
	C243.039154,7.153220 243.765305,4.352533 244.327423,1.309839 
	C253.354233,1.000000 262.708466,1.000000 272.531342,1.000001 
	C273.671265,3.701167 274.342560,6.402331 274.799194,9.770231 
	C274.022614,10.781858 273.499420,11.230623 272.893158,11.456437 
	C257.662567,17.129503 246.320587,27.396557 238.540726,41.449833 
	C236.276443,45.539936 235.554657,50.483963 234.009827,55.375263 
	C227.589035,66.240242 227.697556,76.903648 233.177399,88.086990 
	C235.213654,99.845093 241.397736,109.026726 248.942734,117.300751 
	C256.110596,125.161201 265.384796,130.026382 275.103058,134.058167 
z"/>
<path fill="#8C5678" opacity="1.000000" stroke="none" 
	d="
M125.468658,513.000000 
	C126.737099,512.655518 128.474060,512.010437 130.211319,512.009705 
	C215.784210,511.972687 301.357117,511.988647 386.930023,512.022644 
	C388.406494,512.023193 389.882812,512.314514 391.679626,512.735107 
	C303.312439,513.000000 214.624878,513.000000 125.468658,513.000000 
z"/>
<path fill="#4D5080" opacity="1.000000" stroke="none" 
	d="
M167.021011,326.165131 
	C180.366928,326.098511 193.712860,326.031860 207.984253,326.031128 
	C214.283356,326.113007 219.656982,326.128937 225.489090,326.242981 
	C250.160248,326.367828 274.372955,326.417450 298.585541,326.397552 
	C302.387878,326.394440 306.189972,326.076050 309.992157,325.903442 
	C328.743011,325.903442 347.493896,325.903442 367.025452,325.903442 
	C367.025452,347.613159 367.025452,368.813049 366.969818,390.943726 
	C366.914185,412.089844 366.914185,432.305206 366.914185,453.189056 
	C337.819641,453.189056 309.453827,453.189056 281.066162,452.708496 
	C281.028931,448.435577 280.840759,444.633759 281.047729,440.853546 
	C281.246063,437.231262 279.906128,435.855591 276.215820,435.941040 
	C267.810730,436.135559 259.398193,436.009521 250.522949,436.008118 
	C246.730423,436.002838 243.399521,436.106445 240.078125,435.973145 
	C237.046936,435.851501 235.915588,437.184265 235.989456,440.136383 
	C236.097549,444.457672 235.978149,448.784637 235.489914,453.105530 
	C212.348404,453.055176 189.672699,453.008484 166.998550,452.495544 
	C167.007065,410.074554 167.014038,368.119843 167.021011,326.165131 
z"/>
<path fill="#3BBDF3" opacity="1.000000" stroke="none" 
	d="
M390.008301,163.158417 
	C418.304993,163.105728 446.601685,163.027252 474.898224,163.075226 
	C476.338379,163.077667 477.784119,164.151047 479.209656,164.766602 
	C479.497955,164.891083 479.718323,165.188614 479.950256,165.425674 
	C484.938477,170.524689 491.743286,174.841080 494.382568,180.955276 
	C496.870148,186.718079 494.993622,194.374985 494.995667,201.198639 
	C495.005005,232.162338 494.999817,263.126038 494.999817,294.089752 
	C494.999817,295.889618 494.999786,297.689514 494.999786,299.979736 
	C460.072876,299.979736 425.504974,299.979736 390.470703,299.450287 
	C390.005707,253.666687 390.007019,208.412552 390.008301,163.158417 
M454.362762,230.856369 
	C459.711029,224.911026 465.077026,218.981491 470.402130,213.015457 
	C474.811798,208.075012 475.089325,203.365585 471.247925,199.834915 
	C467.541992,196.428726 462.482300,197.215500 458.222137,201.930923 
	C448.840271,212.315277 439.488434,222.726761 430.115967,233.119583 
	C428.148285,235.301483 426.144562,237.450882 424.254822,239.509155 
	C423.368164,238.906281 423.031250,238.774384 422.835693,238.529587 
	C420.133453,235.146698 417.476501,231.727417 414.756866,228.358704 
	C410.934753,223.624451 406.135651,222.585480 402.224426,225.589752 
	C398.201538,228.679779 397.930725,233.409653 401.685730,238.363968 
	C406.213470,244.337814 410.849426,250.230164 415.476624,256.127930 
	C420.658386,262.732574 425.325104,262.910034 431.097473,256.599365 
	C438.743835,248.240036 446.292084,239.790924 454.362762,230.856369 
z"/>
<path fill="#FDD835" opacity="1.000000" stroke="none" 
	d="
M82.042068,146.882416 
	C101.392960,146.387604 117.054688,154.427628 129.140778,168.870773 
	C140.613647,182.581100 144.658813,198.571884 142.333023,216.703568 
	C140.738708,229.132721 134.496109,238.432312 126.889145,247.329712 
	C122.373413,252.611450 119.900497,258.617096 119.322876,265.340637 
	C118.947433,269.710663 116.384407,271.504547 112.204987,272.539490 
	C93.403397,272.320801 75.211578,272.291138 56.765450,272.168152 
	C56.342251,272.010864 56.173370,271.946899 55.816250,271.596924 
	C54.428616,269.007477 52.334961,266.758087 52.191933,264.390808 
	C51.696930,256.198181 47.801800,249.735153 42.501141,244.105347 
	C29.892559,230.713867 26.414684,214.532532 29.631096,197.318893 
	C34.452347,171.516479 50.326305,155.257095 75.947121,148.782303 
	C78.007240,148.261673 80.011726,147.520889 82.042068,146.882416 
z"/>
<path fill="#4E5080" opacity="1.000000" stroke="none" 
	d="
M240.020538,173.191895 
	C241.087997,172.801056 242.150787,172.083984 243.223663,172.068527 
	C258.433533,171.849152 273.573486,171.927505 288.532135,175.668900 
	C308.939026,180.772980 321.374664,193.524078 325.858337,213.783936 
	C327.662933,221.938126 328.235077,230.397568 328.934357,238.754379 
	C329.582703,246.502960 329.652740,254.299957 329.539062,262.525757 
	C327.508087,263.432251 325.907196,263.861389 324.324249,264.348907 
	C295.855194,273.116943 269.170624,269.198547 245.164886,251.677231 
	C236.446793,245.314041 229.373306,236.697632 221.956787,229.504364 
	C216.511932,235.563232 210.335907,242.435715 204.122253,248.828766 
	C204.386292,243.725433 204.688293,239.101532 204.989578,234.477600 
	C206.502518,211.258759 216.453445,192.559875 234.911301,178.353821 
	C236.812485,176.890564 238.326736,174.924591 240.020538,173.191895 
z"/>
<path fill="#FFBFA8" opacity="1.000000" stroke="none" 
	d="
M204.159882,249.308197 
	C210.335907,242.435715 216.511932,235.563232 221.956787,229.504364 
	C229.373306,236.697632 236.446793,245.314041 245.164886,251.677231 
	C269.170624,269.198547 295.855194,273.116943 324.324249,264.348907 
	C325.907196,263.861389 327.508087,263.432251 329.481750,262.990234 
	C329.192200,285.632751 323.349792,306.609680 309.999481,325.547546 
	C306.189972,326.076050 302.387878,326.394440 298.585541,326.397552 
	C274.372955,326.417450 250.160248,326.367828 225.327759,325.935852 
	C221.754593,320.911163 218.429794,316.484589 215.913284,311.638306 
	C205.890488,292.336456 203.273270,271.531067 204.071533,249.908905 
	C204.108597,249.709854 204.159882,249.308197 204.159882,249.308197 
z"/>
<path fill="#FF656F" opacity="1.000000" stroke="none" 
	d="
M275.431915,133.869034 
	C265.384796,130.026382 256.110596,125.161201 248.942734,117.300751 
	C241.397736,109.026726 235.213654,99.845093 233.449280,88.293625 
	C239.922119,96.815407 248.158325,101.669273 259.404358,101.670227 
	C261.589264,101.422432 263.414734,101.219246 265.188538,100.798332 
	C279.881622,97.311813 289.486572,83.758743 287.925964,68.774445 
	C286.449890,54.602123 274.492004,43.536880 259.715729,42.819695 
	C248.753128,42.248356 240.833008,47.401768 234.125809,55.036568 
	C235.554657,50.483963 236.276443,45.539936 238.540726,41.449833 
	C246.320587,27.396557 257.662567,17.129503 272.893158,11.456437 
	C273.499420,11.230623 274.022614,10.781858 274.820740,10.173149 
	C276.330963,13.957101 277.514282,17.616581 282.807831,18.655451 
	C285.124115,19.110023 286.658142,18.949551 288.328583,17.915894 
	C291.362305,16.038622 294.288116,13.986893 298.014404,11.504787 
	C303.447388,16.939270 309.004608,22.194786 314.202606,27.784369 
	C319.215179,33.174595 319.226044,33.470318 314.608734,39.790833 
	C311.750488,43.703423 310.417847,47.431213 313.843903,51.436058 
	C315.113281,52.919857 316.921722,54.166912 318.735718,54.898815 
	C320.644257,55.668884 322.904022,55.516193 324.918640,56.089157 
	C327.383148,56.790092 329.201904,57.931404 329.080963,61.211842 
	C328.816986,68.373299 328.948730,75.551727 329.023254,82.722145 
	C329.055511,85.826576 328.087219,87.813087 324.643097,88.045715 
	C323.211487,88.142403 321.819092,88.724236 320.391083,88.989876 
	C317.157227,89.591454 313.876556,89.652611 312.912567,94.077850 
	C312.222900,97.243866 311.503448,99.544617 313.751404,102.825424 
	C319.316498,110.947411 318.868286,112.528366 311.798340,119.637993 
	C308.549805,122.904739 304.798889,125.678062 301.611145,128.997223 
	C298.681976,132.047195 296.268372,131.892609 292.901062,129.555161 
	C289.303375,127.057808 286.165070,123.309799 280.342468,126.535400 
	C276.858459,128.465454 276.316620,130.685883 275.431915,133.869034 
z"/>
<path fill="#FD656F" opacity="1.000000" stroke="none" 
	d="
M281.088013,453.189056 
	C309.453827,453.189056 337.819641,453.189056 366.914185,453.189056 
	C366.914185,432.305206 366.914185,412.089844 366.995422,391.408081 
	C379.125946,402.131134 385.852509,416.292786 390.007385,431.907806 
	C394.044434,447.079987 392.831329,462.585236 393.048035,478.466431 
	C390.996582,479.240906 388.911072,479.820801 386.824554,479.824402 
	C351.924622,479.884888 317.024597,479.873413 281.598969,479.441681 
	C281.078247,470.399963 281.083130,461.794525 281.088013,453.189056 
z"/>
<path fill="#464675" opacity="1.000000" stroke="none" 
	d="
M166.554840,326.105042 
	C167.014038,368.119843 167.007065,410.074554 166.538269,452.586914 
	C162.288086,453.167755 158.485535,452.995758 154.715515,453.270386 
	C151.127747,453.531769 150.180588,452.007629 150.283966,448.676819 
	C150.436935,443.747986 150.178513,438.806427 150.177490,433.415588 
	C150.132706,418.942139 150.005661,404.923340 149.878601,390.904572 
	C149.878601,369.537140 149.878601,348.169678 149.878601,326.044983 
	C155.618256,326.044983 160.853455,326.044983 166.554840,326.105042 
z"/>
<path fill="#2EB0E8" opacity="1.000000" stroke="none" 
	d="
M389.549561,163.084747 
	C390.007019,208.412552 390.005707,253.666687 390.007507,299.379089 
	C386.207581,299.837372 382.404480,299.837372 378.301025,299.837372 
	C378.301025,254.344269 378.301025,208.964661 378.301025,163.011078 
	C381.883362,163.011078 385.487122,163.011078 389.549561,163.084747 
z"/>
<path fill="#FE4857" opacity="1.000000" stroke="none" 
	d="
M149.574890,391.050842 
	C150.005661,404.923340 150.132706,418.942139 149.929901,433.736115 
	C145.938644,449.389648 147.238449,464.554626 146.993073,479.630310 
	C139.824814,479.607269 132.656570,479.584259 125.182571,479.261169 
	C124.916626,469.011902 124.772659,459.057831 125.034904,449.114502 
	C125.562500,429.110016 132.673828,411.555145 145.323761,396.155701 
	C146.664612,394.523407 147.956543,392.850922 149.574890,391.050842 
z"/>
<path fill="#444775" opacity="1.000000" stroke="none" 
	d="
M204.122253,248.828766 
	C204.159882,249.308197 204.108597,249.709854 203.766602,250.039078 
	C198.329773,253.594086 193.234924,256.819855 188.140076,260.045654 
	C187.662994,243.820740 187.952286,227.695618 191.805222,211.754166 
	C196.606110,191.890457 209.205215,180.124710 228.562363,175.038025 
	C232.038177,174.124634 235.640472,173.692596 239.602448,173.115112 
	C238.326736,174.924591 236.812485,176.890564 234.911301,178.353821 
	C216.453445,192.559875 206.502518,211.258759 204.989578,234.477600 
	C204.688293,239.101532 204.386292,243.725433 204.122253,248.828766 
z"/>
<path fill="#FBC12D" opacity="1.000000" stroke="none" 
	d="
M81.844070,146.533752 
	C80.011726,147.520889 78.007240,148.261673 75.947121,148.782303 
	C50.326305,155.257095 34.452347,171.516479 29.631096,197.318893 
	C26.414684,214.532532 29.892559,230.713867 42.501141,244.105347 
	C47.801800,249.735153 51.696930,256.198181 52.191933,264.390808 
	C52.334961,266.758087 54.428616,269.007477 55.411121,271.666687 
	C53.414219,272.360657 51.634201,272.698822 49.854187,273.036987 
	C43.892616,271.542908 42.014271,267.680695 41.822922,261.646271 
	C41.583889,254.108032 36.304283,248.681900 31.688639,243.255341 
	C23.861864,234.053558 19.438805,223.733826 18.875273,211.464325 
	C18.247055,197.786362 21.150854,185.123672 28.741520,173.937378 
	C37.889893,160.455521 50.634197,151.551208 66.734375,148.069733 
	C71.612679,147.014862 76.670479,146.790100 81.844070,146.533752 
z"/>
<path fill="#C5DCF1" opacity="1.000000" stroke="none" 
	d="
M57.019760,272.261475 
	C75.211578,272.291138 93.403397,272.320801 111.877045,272.683777 
	C112.105927,276.296387 111.726921,279.609222 112.060776,282.848633 
	C113.087807,292.813873 107.863800,296.616699 98.148254,295.796448 
	C87.479126,295.389740 77.569275,295.184814 67.658920,295.007965 
	C60.742317,294.884491 57.316921,291.656647 57.051052,284.687073 
	C56.893261,280.550842 57.020615,276.403717 57.019760,272.261475 
z"/>
<path fill="#FCAC8F" opacity="1.000000" stroke="none" 
	d="
M188.076584,260.507812 
	C193.234924,256.819855 198.329773,253.594086 203.729553,250.238129 
	C203.273270,271.531067 205.890488,292.336456 215.913284,311.638306 
	C218.429794,316.484589 221.754593,320.911163 224.869263,325.837769 
	C219.656982,326.128937 214.283356,326.113007 208.450241,325.984375 
	C197.481995,311.285309 190.788452,295.194092 189.024719,277.217133 
	C188.495239,271.820282 188.339859,266.386749 188.076584,260.507812 
z"/>
<path fill="#B0CFED" opacity="1.000000" stroke="none" 
	d="
M56.765450,272.168182 
	C57.020615,276.403717 56.893261,280.550842 57.051052,284.687073 
	C57.316921,291.656647 60.742317,294.884491 67.658920,295.007965 
	C77.569275,295.184814 87.479126,295.389740 97.717834,295.843201 
	C98.300804,302.746399 98.071762,308.893829 91.501305,313.281219 
	C84.950653,317.655396 78.621933,317.815491 71.961128,314.430725 
	C65.694427,311.246185 63.362938,305.836365 63.990070,298.985626 
	C64.063362,298.184998 64.000023,297.371826 64.000023,296.612305 
	C60.752876,296.031464 57.642628,295.855774 54.815186,294.869385 
	C51.551712,293.730957 49.852737,291.129242 49.965145,287.424835 
	C50.101208,282.940887 49.989506,278.449432 49.919601,273.499084 
	C51.634201,272.698822 53.414219,272.360657 55.599365,271.952698 
	C56.173370,271.946899 56.342251,272.010864 56.765450,272.168182 
z"/>
<path fill="#FC656F" opacity="1.000000" stroke="none" 
	d="
M147.455444,479.712280 
	C147.238449,464.554626 145.938644,449.389648 149.847656,434.190796 
	C150.178513,438.806427 150.436935,443.747986 150.283966,448.676819 
	C150.180588,452.007629 151.127747,453.531769 154.715515,453.270386 
	C158.485535,452.995758 162.288086,453.167755 166.536713,453.053192 
	C189.672699,453.008484 212.348404,453.055176 235.547928,453.563416 
	C236.008835,462.660706 235.945923,471.296417 235.883011,479.932129 
	C206.561279,479.886139 177.239563,479.840179 147.455444,479.712280 
z"/>
<path fill="#434675" opacity="1.000000" stroke="none" 
	d="
M281.066162,452.708496 
	C281.083130,461.794525 281.078247,470.399963 281.144226,479.463806 
	C271.449432,479.943268 261.683777,479.964355 251.454895,479.513153 
	C250.990677,464.698486 250.989685,450.356110 250.988693,436.013733 
	C259.398193,436.009521 267.810730,436.135559 276.215820,435.941040 
	C279.906128,435.855591 281.246063,437.231262 281.047729,440.853546 
	C280.840759,444.633759 281.028931,448.435577 281.066162,452.708496 
z"/>
<path fill="#3A3D6B" opacity="1.000000" stroke="none" 
	d="
M250.522949,436.008118 
	C250.989685,450.356110 250.990677,464.698486 250.984909,479.506317 
	C246.261856,479.966461 241.545563,479.961151 236.356140,479.943970 
	C235.945923,471.296417 236.008835,462.660706 236.013748,453.567078 
	C235.978149,448.784637 236.097549,444.457672 235.989456,440.136383 
	C235.915588,437.184265 237.046936,435.851501 240.078125,435.973145 
	C243.399521,436.106445 246.730423,436.002838 250.522949,436.008118 
z"/>
<path fill="#D2E1EF" opacity="1.000000" stroke="none" 
	d="
M259.020996,101.613922 
	C248.158325,101.669273 239.922119,96.815407 233.482208,87.889236 
	C227.697556,76.903648 227.589035,66.240242 234.009827,55.375259 
	C240.833008,47.401768 248.753128,42.248356 259.459839,43.056900 
	C257.561646,44.344048 255.572662,45.187943 253.657944,46.175777 
	C234.462204,56.079044 232.313507,82.651588 249.702728,95.429939 
	C252.703278,97.634880 255.909683,99.559700 259.020996,101.613922 
z"/>
<path fill="#EBF6FF" opacity="1.000000" stroke="none" 
	d="
M454.122620,231.118393 
	C446.292084,239.790924 438.743835,248.240036 431.097473,256.599365 
	C425.325104,262.910034 420.658386,262.732574 415.476624,256.127930 
	C410.849426,250.230164 406.213470,244.337814 401.685730,238.363968 
	C397.930725,233.409653 398.201538,228.679779 402.224426,225.589752 
	C406.135651,222.585480 410.934753,223.624451 414.756866,228.358704 
	C417.476501,231.727417 420.133453,235.146698 422.835693,238.529587 
	C423.031250,238.774384 423.368164,238.906281 424.254822,239.509155 
	C426.144562,237.450882 428.148285,235.301483 430.115967,233.119583 
	C439.488434,222.726761 448.840271,212.315277 458.222137,201.930923 
	C462.482300,197.215500 467.541992,196.428726 471.247925,199.834915 
	C475.089325,203.365585 474.811798,208.075012 470.402130,213.015457 
	C465.077026,218.981491 459.711029,224.911026 454.122620,231.118393 
z"/>
<path fill="#E2EFF9" opacity="1.000000" stroke="none" 
	d="
M259.404358,101.670227 
	C255.909683,99.559700 252.703278,97.634880 249.702728,95.429939 
	C232.313507,82.651588 234.462204,56.079044 253.657944,46.175777 
	C255.572662,45.187943 257.561646,44.344048 259.772034,43.196152 
	C274.492004,43.536880 286.449890,54.602123 287.925964,68.774445 
	C289.486572,83.758743 279.881622,97.311813 265.188538,100.798332 
	C263.414734,101.219246 261.589264,101.422432 259.404358,101.670227 
z"/>
</svg>